<svg xmlns="http://www.w3.org/2000/svg" fill="currentColor" viewBox="0 0 20 20">
    <path id="color"
        d="M6 7L6 9L4 9L4 7L6 7ZM20 8C20 7.44769 19.5522 7 19 7L9 7C8.44775 7 8 7.44769 8 8C8 8.55231 8.44775 9 9 9L19 9C19.5522 9 20 8.55231 20 8ZM6 11L6 13L4 13L4 11L6 11ZM20 12C20 11.4477 19.5522 11 19 11L9 11C8.44775 11 8 11.4477 8 12C8 12.5523 8.44775 13 9 13L19 13C19.5522 13 20 12.5523 20 12ZM6 17L6 15L4 15L4 17L6 17ZM20 16C20 15.4477 19.5522 15 19 15L9 15C8.44775 15 8 15.4477 8 16C8 16.5523 8.44775 17 9 17L19 17C19.5522 17 20 16.5523 20 16Z" />
    <path id="icon-open-book"
        d="M1 2.828c.885-.37 2.154-.769 3.388-.893 1.33-.134 2.458.063 3.112.752v9.746c-.935-.53-2.12-.603-3.213-.493-1.18.12-2.37.461-3.287.811zm7.5-.141c.654-.689 1.782-.886 3.112-.752 1.234.124 2.503.523 3.388.893v9.923c-.918-.35-2.107-.692-3.287-.81-1.094-.111-2.278-.039-3.213.492zM8 1.783C7.015.936 5.587.81 4.287.94c-1.514.153-3.042.672-3.994 1.105A.5.5 0 0 0 0 2.5v11a.5.5 0 0 0 .707.455c.882-.4 2.303-.881 3.68-1.02 1.409-.142 2.59.087 3.223.877a.5.5 0 0 0 .78 0c.633-.79 1.814-1.019 3.222-.877 1.378.139 2.8.62 3.681 1.02A.5.5 0 0 0 16 13.5v-11a.5.5 0 0 0-.293-.455c-.952-.433-2.48-.952-3.994-1.105C10.413.809 8.985.936 8 1.783" />
    <mask id="menu-i" fill="white">
        <path id="menu-i"
            d="M11 5C11 3.89545 10.1046 3 9 3L5 3C3.89539 3 3 3.89545 3 5L3 9C3 10.1046 3.89539 11 5 11L9 11C10.1046 11 11 10.1046 11 9L11 5ZM19 3C20.1046 3 21 3.89545 21 5L21 9C21 10.1046 20.1046 11 19 11L15 11C13.8954 11 13 10.1046 13 9L13 5C13 3.89545 13.8954 3 15 3L19 3ZM5 5L9 5L9 9L5 9L5 5ZM19 5L15 5L15 9L19 9L19 5ZM11 15C11 13.8954 10.1046 13 9 13L5 13C3.89539 13 3 13.8954 3 15L3 19C3 20.1046 3.89539 21 5 21L9 21C10.1046 21 11 20.1046 11 19L11 15ZM19 13C20.1046 13 21 13.8954 21 15L21 19C21 20.1046 20.1046 21 19 21L15 21C13.8954 21 13 20.1046 13 19L13 15C13 13.8954 13.8954 13 15 13L19 13ZM5 15L9 15L9 19L5 19L5 15ZM19 15L15 15L15 19L19 19L19 15Z"
            clip-rule="evenodd" fill="" fill-opacity="1.000000" fill-rule="evenodd" />
    </mask>
    <path id="menu-i"
        d="M11 5C11 3.89545 10.1046 3 9 3L5 3C3.89539 3 3 3.89545 3 5L3 9C3 10.1046 3.89539 11 5 11L9 11C10.1046 11 11 10.1046 11 9L11 5ZM19 3C20.1046 3 21 3.89545 21 5L21 9C21 10.1046 20.1046 11 19 11L15 11C13.8954 11 13 10.1046 13 9L13 5C13 3.89545 13.8954 3 15 3L19 3ZM5 5L9 5L9 9L5 9L5 5ZM19 5L15 5L15 9L19 9L19 5ZM11 15C11 13.8954 10.1046 13 9 13L5 13C3.89539 13 3 13.8954 3 15L3 19C3 20.1046 3.89539 21 5 21L9 21C10.1046 21 11 20.1046 11 19L11 15ZM19 13C20.1046 13 21 13.8954 21 15L21 19C21 20.1046 20.1046 21 19 21L15 21C13.8954 21 13 20.1046 13 19L13 15C13 13.8954 13.8954 13 15 13L19 13ZM5 15L9 15L9 19L5 19L5 15ZM19 15L15 15L15 19L19 19L19 15Z"
        clip-rule="evenodd" fill="#7E84A3" fill-opacity="1.000000" fill-rule="evenodd"
        mask="url(#menu-i)" />
    <path id="menu-i" d="" fill="#979797" fill-opacity="0.000000" fill-rule="nonzero" />

    <mask id="target-i" fill="white">
        <path id="target-i"
            d="M12 2C17.5228 2 22 6.47717 22 12C22 17.5228 17.5228 22 12 22C6.47717 22 2 17.5228 2 12C2 6.47717 6.47717 2 12 2ZM12 4C7.58167 4 4 7.58173 4 12C4 16.4183 7.58167 20 12 20C16.4183 20 20 16.4183 20 12C20 7.58173 16.4183 4 12 4ZM18 12C18 8.68628 15.3137 6 12 6C8.68628 6 6 8.68628 6 12C6 15.3137 8.68628 18 12 18C15.3137 18 18 15.3137 18 12ZM12 8C9.79089 8 8 9.79083 8 12C8 14.2092 9.79089 16 12 16C14.2091 16 16 14.2092 16 12C16 9.79083 14.2091 8 12 8ZM14 12C14 10.8954 13.1046 10 12 10C10.8954 10 10 10.8954 10 12C10 13.1046 10.8954 14 12 14C13.1046 14 14 13.1046 14 12Z"
            clip-rule="evenodd" fill="" fill-opacity="1.000000" fill-rule="evenodd" />
    </mask>
    <path id="target-i"
        d="M12 2C17.5228 2 22 6.47717 22 12C22 17.5228 17.5228 22 12 22C6.47717 22 2 17.5228 2 12C2 6.47717 6.47717 2 12 2ZM12 4C7.58167 4 4 7.58173 4 12C4 16.4183 7.58167 20 12 20C16.4183 20 20 16.4183 20 12C20 7.58173 16.4183 4 12 4ZM18 12C18 8.68628 15.3137 6 12 6C8.68628 6 6 8.68628 6 12C6 15.3137 8.68628 18 12 18C15.3137 18 18 15.3137 18 12ZM12 8C9.79089 8 8 9.79083 8 12C8 14.2092 9.79089 16 12 16C14.2091 16 16 14.2092 16 12C16 9.79083 14.2091 8 12 8ZM14 12C14 10.8954 13.1046 10 12 10C10.8954 10 10 10.8954 10 12C10 13.1046 10.8954 14 12 14C13.1046 14 14 13.1046 14 12Z"
        clip-rule="evenodd" fill="#7E84A3" fill-opacity="1.000000" fill-rule="evenodd"
        mask="url(#target-i)" />
    <path id="target-i" d="" fill="#979797" fill-opacity="0.000000" fill-rule="nonzero" />
    <path id="icon-open-book"
    d="M1 2.828c.885-.37 2.154-.769 3.388-.893 1.33-.134 2.458.063 3.112.752v9.746c-.935-.53-2.12-.603-3.213-.493-1.18.12-2.37.461-3.287.811zm7.5-.141c.654-.689 1.782-.886 3.112-.752 1.234.124 2.503.523 3.388.893v9.923c-.918-.35-2.107-.692-3.287-.81-1.094-.111-2.278-.039-3.213.492zM8 1.783C7.015.936 5.587.81 4.287.94c-1.514.153-3.042.672-3.994 1.105A.5.5 0 0 0 0 2.5v11a.5.5 0 0 0 .707.455c.882-.4 2.303-.881 3.68-1.02 1.409-.142 2.59.087 3.223.877a.5.5 0 0 0 .78 0c.633-.79 1.814-1.019 3.222-.877 1.378.139 2.8.62 3.681 1.02A.5.5 0 0 0 16 13.5v-11a.5.5 0 0 0-.293-.455c-.952-.433-2.48-.952-3.994-1.105C10.413.809 8.985.936 8 1.783" />

</svg>